HIERARCHY
ROOT Hips
{
  OFFSET 5.84602e-005 68.8428 3.50346
  CHANNELS 6 Xposition Yposition Zposition Zrotation Xrotation Yrotation
  JOINT Spine
  {
    OFFSET 0 8.597 -4.6522
    CHANNELS 3 Zrotation Xrotation Yrotation
    JOINT Spine1
    {
      OFFSET 0 7.8454 0.4098
      CHANNELS 3 Zrotation Xrotation Yrotation
      JOINT Spine2
      {
        OFFSET 0 9.7078 -2.1609
        CHANNELS 3 Zrotation Xrotation Yrotation
        JOINT Neck
        {
          OFFSET 0 21.8761 -0.4549
          CHANNELS 3 Zrotation Xrotation Yrotation
          JOINT Head
          {
            OFFSET 0 12.3537 3.3602
            CHANNELS 3 Zrotation Xrotation Yrotation
            End Site
            {
              OFFSET 0.0001 18.9506 0.5657
            }
          }
        }
        JOINT LeftShoulder
        {
          OFFSET 2.2086 21.1115 7.2329
          CHANNELS 3 Zrotation Xrotation Yrotation
          JOINT LeftArm
          {
            OFFSET 13.1193 3.0282 -4.8998
            CHANNELS 3 Zrotation Xrotation Yrotation
            JOINT LeftForeArm
            {
              OFFSET 27.4081 -0.0973053 -0.2375
              CHANNELS 3 Zrotation Xrotation Yrotation
              JOINT LeftHand
              {
                OFFSET 22.8641 0.0662994 -0.1369
                CHANNELS 3 Zrotation Xrotation Yrotation
                JOINT LeftHandIndex1
                {
                  OFFSET 8.8614 0.775009 2.4612
                  CHANNELS 3 Zrotation Xrotation Yrotation
                  JOINT LeftHandIndex2
                  {
                    OFFSET 3.3146 -0.808304 0.5841
                    CHANNELS 3 Zrotation Xrotation Yrotation
                    JOINT LeftHandIndex3
                    {
                      OFFSET 2.2628 -0.552002 0.3989
                      CHANNELS 3 Zrotation Xrotation Yrotation
                      End Site
                      {
                        OFFSET 1.6102 -0.4807 0.2612
                      }
                    }
                  }
                }
                JOINT LeftHandMiddle1
                {
                  OFFSET 8.9937 0.895004 0.2143
                  CHANNELS 3 Zrotation Xrotation Yrotation
                  JOINT LeftHandMiddle2
                  {
                    OFFSET 4.0984 0.0113983 -0.0242
                    CHANNELS 3 Zrotation Xrotation Yrotation
                    JOINT LeftHandMiddle3
                    {
                      OFFSET 2.2716 0.00689697 -0.0138001
                      CHANNELS 3 Zrotation Xrotation Yrotation
                      End Site
                      {
                        OFFSET 2.0404 -0.1441 0.0027
                      }
                    }
                  }
                }
                JOINT LeftHandRing1
                {
                  OFFSET 8.5234 0.597198 -2.0164
                  CHANNELS 3 Zrotation Xrotation Yrotation
                  JOINT LeftHandRing2
                  {
                    OFFSET 3.7188 -0.188293 -0.2328
                    CHANNELS 3 Zrotation Xrotation Yrotation
                    JOINT LeftHandRing3
                    {
                      OFFSET 2.1191 -0.106598 -0.1332
                      CHANNELS 3 Zrotation Xrotation Yrotation
                      End Site
                      {
                        OFFSET 1.8737 -0.2304 -0.0886
                      }
                    }
                  }
                }
                JOINT LeftHandPinky1
                {
                  OFFSET 7.9094 -0.601089 -3.4825
                  CHANNELS 3 Zrotation Xrotation Yrotation
                  JOINT LeftHandPinky2
                  {
                    OFFSET 2.2874 -0.477005 -0.6314
                    CHANNELS 3 Zrotation Xrotation Yrotation
                    JOINT LeftHandPinky3
                    {
                      OFFSET 1.6774 -0.349396 -0.4633
                      CHANNELS 3 Zrotation Xrotation Yrotation
                      End Site
                      {
                        OFFSET 1.4888 -0.4091 -0.3416
                      }
                    }
                  }
                }
                JOINT LeftHandThumb1
                {
                  OFFSET 1.833 -1.3875 1.3896
                  CHANNELS 3 Zrotation Xrotation Yrotation
                  JOINT LeftHandThumb2
                  {
                    OFFSET 3.4129 -1.121 2.5732
                    CHANNELS 3 Zrotation Xrotation Yrotation
                    JOINT LeftHandThumb3
                    {
                      OFFSET 2.2474 -0.804199 1.6192
                      CHANNELS 3 Zrotation Xrotation Yrotation
                      End Site
                      {
                        OFFSET 1.6527 -0.5689 1.1317
                      }
                    }
                  }
                }
              }
            }
          }
        }
        JOINT RightShoulder
        {
          OFFSET -2.2086 21.1115 7.2329
          CHANNELS 3 Zrotation Xrotation Yrotation
          JOINT RightArm
          {
            OFFSET -13.1216 3.0287 -4.9007
            CHANNELS 3 Zrotation Xrotation Yrotation
            JOINT RightForeArm
            {
              OFFSET -27.4081 -0.0973053 -0.2375
              CHANNELS 3 Zrotation Xrotation Yrotation
              JOINT RightHand
              {
                OFFSET -22.8641 0.0664063 -0.1369
                CHANNELS 3 Zrotation Xrotation Yrotation
                JOINT RightHandIndex1
                {
                  OFFSET -8.8614 0.774994 2.4612
                  CHANNELS 3 Zrotation Xrotation Yrotation
                  JOINT RightHandIndex2
                  {
                    OFFSET -3.3146 -0.808304 0.5841
                    CHANNELS 3 Zrotation Xrotation Yrotation
                    JOINT RightHandIndex3
                    {
                      OFFSET -2.2628 -0.552002 0.3989
                      CHANNELS 3 Zrotation Xrotation Yrotation
                      End Site
                      {
                        OFFSET -1.6102 -0.4807 0.2612
                      }
                    }
                  }
                }
                JOINT RightHandMiddle1
                {
                  OFFSET -8.9937 0.894989 0.2143
                  CHANNELS 3 Zrotation Xrotation Yrotation
                  JOINT RightHandMiddle2
                  {
                    OFFSET -4.0984 0.0113983 -0.0242
                    CHANNELS 3 Zrotation Xrotation Yrotation
                    JOINT RightHandMiddle3
                    {
                      OFFSET -2.2716 0.00691223 -0.0138001
                      CHANNELS 3 Zrotation Xrotation Yrotation
                      End Site
                      {
                        OFFSET -2.0404 -0.1441 0.0027
                      }
                    }
                  }
                }
                JOINT RightHandRing1
                {
                  OFFSET -8.5234 0.597198 -2.0164
                  CHANNELS 3 Zrotation Xrotation Yrotation
                  JOINT RightHandRing2
                  {
                    OFFSET -3.7188 -0.188309 -0.2328
                    CHANNELS 3 Zrotation Xrotation Yrotation
                    JOINT RightHandRing3
                    {
                      OFFSET -2.1191 -0.106598 -0.1332
                      CHANNELS 3 Zrotation Xrotation Yrotation
                      End Site
                      {
                        OFFSET -1.8737 -0.2304 -0.0886
                      }
                    }
                  }
                }
                JOINT RightHandPinky1
                {
                  OFFSET -7.9094 -0.601105 -3.4825
                  CHANNELS 3 Zrotation Xrotation Yrotation
                  JOINT RightHandPinky2
                  {
                    OFFSET -2.2874 -0.477005 -0.6314
                    CHANNELS 3 Zrotation Xrotation Yrotation
                    JOINT RightHandPinky3
                    {
                      OFFSET -1.6774 -0.349396 -0.4633
                      CHANNELS 3 Zrotation Xrotation Yrotation
                      End Site
                      {
                        OFFSET -1.4888 -0.4091 -0.3416
                      }
                    }
                  }
                }
                JOINT RightHandThumb1
                {
                  OFFSET -1.833 -1.38751 1.3896
                  CHANNELS 3 Zrotation Xrotation Yrotation
                  JOINT RightHandThumb2
                  {
                    OFFSET -3.41299 -1.12099 2.5732
                    CHANNELS 3 Zrotation Xrotation Yrotation
                    JOINT RightHandThumb3
                    {
                      OFFSET -2.24741 -0.804108 1.6192
                      CHANNELS 3 Zrotation Xrotation Yrotation
                      End Site
                      {
                        OFFSET -1.6527 -0.5689 1.1317
                      }
                    }
                  }
                }
              }
            }
          }
        }
      }
    }
  }
  JOINT RightUpLeg
  {
    OFFSET -9.1966 3.8861 -0.7581
    CHANNELS 3 Zrotation Xrotation Yrotation
    JOINT RightLeg
    {
      OFFSET -0.7359 -41.0265 0
      CHANNELS 3 Zrotation Xrotation Yrotation
      JOINT RightFoot
      {
        OFFSET 0 -40.2855 0
        CHANNELS 3 Zrotation Xrotation Yrotation
        JOINT RightToeBase
        {
          OFFSET 0 -5.6122 11.7359
          CHANNELS 3 Zrotation Xrotation Yrotation
          End Site
          {
            OFFSET 0 0 7.8731
          }
        }
      }
    }
  }
  JOINT LeftUpLeg
  {
    OFFSET 9.1965 3.8864 -0.7581
    CHANNELS 3 Zrotation Xrotation Yrotation
    JOINT LeftLeg
    {
      OFFSET 0.7359 -41.0268 0
      CHANNELS 3 Zrotation Xrotation Yrotation
      JOINT LeftFoot
      {
        OFFSET 0 -40.2855 0
        CHANNELS 3 Zrotation Xrotation Yrotation
        JOINT LeftToeBase
        {
          OFFSET 0 -5.6122 11.7359
          CHANNELS 3 Zrotation Xrotation Yrotation
          End Site
          {
            OFFSET 0 0 7.8731
          }
        }
      }
    }
  }
}
MOTION
Frames:	6
Frame Time:	0.0333333
39.7391 -3.9236 6.35876 -0 -25.0011 -0 -0.0187338 -1.1536 -0.129006 -0.0400781 -2.30695 -0.258469 -0.0400781 -2.30695 -0.258468 10.5901 19.1316 9.49057 -1.4414e-007 11.5588 -1.25783e-006 -11.8752 7.21662 -2.71821 -65.7023 -10.694 -42.3088 14.7711 30.9633 -19.5133 -54.4507 9.95702 3.84817 -3.18055e-015 -5.56597e-015 -1.35174e-014 -3.08973e-031 -1.59028e-015 -1.11319e-014 -3.18055e-015 0 -8.74653e-015 -3.18055e-015 -5.56597e-015 -1.35174e-014 -0.0146281 -9.24826e-005 -2.51911e-007 3.18055e-015 -9.54166e-015 -2.38542e-015 -3.18055e-015 -5.56597e-015 -1.35174e-014 -0.0188145 -0.00118302 5.95254e-005 -9.54166e-015 2.38542e-015 -3.18055e-015 -3.18055e-015 -5.56597e-015 -1.35174e-014 -0.0122592 -0.00325036 0.000671899 6.36111e-015 -5.56597e-015 2.38542e-015 -3.18055e-015 -5.56597e-015 -1.35174e-014 -3.08973e-031 -1.59028e-015 -1.11319e-014 -3.18055e-015 0 -8.74653e-015 12.0203 7.08232 3.06354 65.308 -10.9556 41.9537 -15.1555 30.7915 19.993 54.7946 9.95315 -4.202 8.25956e-007 7.20226e-007 -6.60886e-007 -3.18055e-015 -6.36111e-015 4.77083e-015 3.18055e-015 -4.77083e-015 7.95139e-016 8.25956e-007 7.20226e-007 -6.60886e-007 0.0150091 -9.49262e-005 -2.37204e-006 -6.36111e-015 -6.36111e-015 -1.59028e-015 8.25956e-007 7.20226e-007 -6.60886e-007 0.0190067 -0.00119405 -6.1017e-005 -6.36111e-015 -2.38542e-015 6.36111e-015 8.25956e-007 7.20226e-007 -6.60886e-007 0.0122286 -0.00324046 -0.000676263 0 0 -6.36111e-015 8.25956e-007 7.20226e-007 -6.60886e-007 -3.18055e-015 -6.36111e-015 4.77083e-015 3.18055e-015 -4.77083e-015 7.95139e-016 -52.6329 -50.9398 -122.028 1.80795 50.7414 -2.89653 -3.54033 14.7305 -6.5375 9.07991e-008 -1.53584e-006 -7.25554e-006 52.6183 -50.9489 121.992 -1.84812 50.7491 2.90391 3.53932 14.7373 6.54456 6.36111e-015 -3.18055e-015 -1.59028e-015 
39.7391 -3.9236 6.42973 -0 -25.0011 -0 -0.0180299 -1.31289 -0.129168 -0.0390365 -2.62567 -0.258852 -0.0390365 -2.62567 -0.258852 10.5136 17.9066 9.73136 2.58735e-007 10.3364 1.37143e-006 -12.0237 7.81568 -2.20914 -65.8467 -10.5149 -42.2482 14.9702 30.8871 -19.8441 -54.6692 10.0398 4.18126 3.18055e-015 0 -5.56597e-015 -2.47998e-007 -9.92189e-007 5.7736e-007 -2.78067e-007 2.36945e-007 2.20035e-007 3.18055e-015 0 -5.56597e-015 -0.014638 -8.45232e-005 -2.9823e-006 -2.78064e-007 2.36917e-007 2.20065e-007 3.18055e-015 0 -5.56597e-015 -0.0187999 -0.00117925 6.22625e-005 -2.78061e-007 2.36909e-007 2.20077e-007 3.18055e-015 0 -5.56597e-015 -0.012178 -0.00322393 0.000670637 -2.78057e-007 2.36924e-007 2.20068e-007 3.18055e-015 0 -5.56597e-015 -2.47998e-007 -9.92189e-007 5.7736e-007 -2.78067e-007 2.36945e-007 2.20035e-007 12.1583 7.66902 2.54439 65.4545 -10.7721 41.8935 -15.3592 30.7108 20.3286 55.0262 10.0422 -4.54817 5.50684e-007 4.80108e-007 -4.40584e-007 8.26027e-007 7.20161e-007 -6.60876e-007 8.26027e-007 7.20161e-007 -6.60876e-007 5.50684e-007 4.80108e-007 -4.40584e-007 0.0149981 -9.43492e-005 -4.0433e-006 8.2602e-007 7.20075e-007 -6.60971e-007 5.50684e-007 4.80108e-007 -4.40584e-007 0.0190076 -0.00118643 -5.46086e-005 8.26011e-007 7.20053e-007 -6.61004e-007 5.50684e-007 4.80108e-007 -4.40584e-007 0.0122816 -0.00325273 -0.000680906 8.25998e-007 7.20097e-007 -6.60976e-007 5.50684e-007 4.80108e-007 -4.40584e-007 8.26027e-007 7.20161e-007 -6.60876e-007 8.26027e-007 7.20161e-007 -6.60876e-007 -52.6328 -50.9399 -122.028 1.80792 50.7413 -2.89651 -3.54032 14.7306 -6.5375 -4.77083e-015 -3.18055e-015 -0 52.6183 -50.9489 121.992 -1.84814 50.7491 2.90393 3.53932 14.7373 6.54456 -1.32856e-006 -2.36458e-006 -1.86939e-006 
39.7391 -3.9236 6.50069 -0 -25.0011 -0 -0.0173241 -1.47204 -0.129332 -0.0379921 -2.944 -0.259237 -0.0379921 -2.94399 -0.259238 10.4428 16.6768 9.96956 -5.37202e-007 9.10993 -1.58078e-006 -12.1777 8.41312 -1.69791 -65.9912 -10.3358 -42.1872 15.1687 30.81 -20.1743 -54.8882 10.1213 4.51474 5.56193e-007 -4.73819e-007 -4.40077e-007 2.78097e-007 -2.3691e-007 -2.20039e-007 5.56193e-007 -4.73819e-007 -4.40077e-007 5.56193e-007 -4.73819e-007 -4.40077e-007 -0.0145997 -9.18898e-005 2.1329e-006 5.56188e-007 -4.73763e-007 -4.40138e-007 5.56193e-007 -4.73819e-007 -4.40077e-007 -0.0187675 -0.00117603 5.75079e-005 3.10064e-007 -1.46571e-006 1.38729e-007 5.56193e-007 -4.73819e-007 -4.40077e-007 -0.0122316 -0.00324274 0.000671748 3.09389e-007 -1.46549e-006 1.38744e-007 5.56193e-007 -4.73819e-007 -4.40077e-007 2.78097e-007 -2.3691e-007 -2.20039e-007 5.56193e-007 -4.73819e-007 -4.40077e-007 12.3019 8.25414 2.02321 65.6011 -10.5887 41.8328 -15.5621 30.6291 20.6635 55.2583 10.1298 -4.89481 -2.75373e-007 -2.40019e-007 2.20294e-007 -6.36111e-015 3.18055e-015 -7.95139e-016 -2.75373e-007 -2.40019e-007 2.20294e-007 -2.75373e-007 -2.40019e-007 2.20294e-007 0.0150351 -9.71053e-005 -2.49291e-006 -2.75371e-007 -2.3999e-007 2.20326e-007 -2.75373e-007 -2.40019e-007 2.20294e-007 0.019045 -0.00118928 -5.35844e-005 -2.75368e-007 -2.39983e-007 2.20337e-007 -2.75373e-007 -2.40019e-007 2.20294e-007 0.0123022 -0.00325838 -0.000677207 -2.75364e-007 -2.39997e-007 2.20328e-007 -2.75373e-007 -2.40019e-007 2.20294e-007 -6.36111e-015 3.18055e-015 -7.95139e-016 -2.75373e-007 -2.40019e-007 2.20294e-007 -52.6328 -50.9398 -122.028 1.80793 50.7413 -2.8965 -3.54032 14.7305 -6.5375 6.36111e-015 9.54166e-015 -0 52.6183 -50.9489 121.992 -1.84811 50.7491 2.90389 3.53931 14.7373 6.54456 3.1307e-006 -1.37419e-006 6.59855e-006 
39.7391 -3.9236 6.57165 -0 -25.0011 -0 -0.0166221 -1.63104 -0.129475 -0.0369555 -3.26196 -0.259581 -0.0369555 -3.26197 -0.259581 10.3776 15.4431 10.2054 2.62018e-006 7.87962 -1.25248e-006 -12.3373 9.00915 -1.18435 -66.1358 -10.157 -42.1258 15.3665 30.7318 -20.5039 -55.1077 10.2016 4.84863 -5.56266e-007 4.73723e-007 4.40097e-007 -2.5032e-006 2.13175e-006 1.98043e-006 -8.34399e-007 7.10584e-007 6.60145e-007 -5.56266e-007 4.73723e-007 4.40097e-007 -0.0146271 -9.06439e-005 2.7466e-006 -8.34392e-007 7.105e-007 6.60236e-007 -5.56266e-007 4.73723e-007 4.40097e-007 -0.0187104 -0.00117212 6.20747e-005 -8.34383e-007 7.10477e-007 6.60269e-007 -5.56266e-007 4.73723e-007 4.40097e-007 -0.0122979 -0.00324858 0.000679783 -8.3437e-007 7.1052e-007 6.60244e-007 -5.56266e-007 4.73723e-007 4.40097e-007 -2.5032e-006 2.13175e-006 1.98043e-006 -8.34399e-007 7.10584e-007 6.60145e-007 12.4511 8.83795 1.49988 65.7477 -10.4054 41.7717 -15.7643 30.5464 20.9979 55.4909 10.216 -5.24184 2.75412e-007 2.39971e-007 -2.20302e-007 1.27222e-014 -3.97569e-015 -3.97569e-015 2.75412e-007 2.39971e-007 -2.20302e-007 2.75412e-007 2.39971e-007 -2.20302e-007 0.0149926 -8.86571e-005 3.72541e-006 2.75409e-007 2.39942e-007 -2.20334e-007 2.75412e-007 2.39971e-007 -2.20302e-007 0.0190108 -0.00119807 -6.57146e-005 2.75407e-007 2.39935e-007 -2.20345e-007 2.75412e-007 2.39971e-007 -2.20302e-007 0.0122951 -0.00325856 -0.000675507 -5.45356e-008 1.14035e-006 3.07962e-007 2.75412e-007 2.39971e-007 -2.20302e-007 1.27222e-014 -3.97569e-015 -3.97569e-015 2.75412e-007 2.39971e-007 -2.20302e-007 -52.6327 -50.9399 -122.028 1.80793 50.7413 -2.8965 -3.54032 14.7306 -6.5375 -4.03287e-006 -3.24456e-006 -8.96114e-006 52.6183 -50.9489 121.992 -1.84813 50.7491 2.90391 3.53932 14.7373 6.54457 1.59028e-015 -1.27222e-014 1.59028e-015 
39.7391 -3.9236 6.64262 -0 -25.0011 -0 -0.0159195 -1.78971 -0.129613 -0.0359182 -3.5793 -0.259915 -0.0359182 -3.5793 -0.259915 10.3178 14.2053 10.4393 -1.66769e-006 6.64573 -2.0467e-006 -12.5025 9.60334 -0.668497 -66.2805 -9.97825 -42.0639 15.5635 30.6527 -20.8329 -55.3277 10.2806 5.18287 -2.20695e-031 3.97569e-015 3.18055e-015 2.78176e-007 -2.368e-007 -2.20064e-007 -6.36111e-015 0 1.59028e-015 -2.20695e-031 3.97569e-015 3.18055e-015 -0.0146295 -9.28104e-005 5.50014e-006 -6.36111e-015 0 -3.97569e-015 -2.20695e-031 3.97569e-015 3.18055e-015 -0.0188152 -0.00117725 5.81792e-005 -9.54166e-015 -4.77083e-015 -4.77083e-015 -2.20695e-031 3.97569e-015 3.18055e-015 -0.0122691 -0.00324793 0.000682537 -3.18055e-015 -2.38542e-015 -6.36111e-015 -2.20695e-031 3.97569e-015 3.18055e-015 2.78176e-007 -2.368e-007 -2.20064e-007 -6.36111e-015 0 1.59028e-015 12.6058 9.41997 0.9744 65.8945 -10.2224 41.7102 -15.9658 30.4627 21.3316 55.7242 10.3009 -5.58932 3.18055e-015 5.56597e-015 -1.03368e-014 1.04647e-006 2.10002e-006 -5.70635e-007 2.75457e-007 2.39909e-007 -2.20316e-007 3.18055e-015 5.56597e-015 -1.03368e-014 0.0149829 -8.8464e-005 7.71905e-007 2.75455e-007 2.3988e-007 -2.20348e-007 3.18055e-015 5.56597e-015 -1.03368e-014 0.0189862 -0.00118953 -6.71899e-005 2.75452e-007 2.39873e-007 -2.20359e-007 3.18055e-015 5.56597e-015 -1.03368e-014 0.0122536 -0.00324174 -0.000684798 2.75447e-007 2.39888e-007 -2.20349e-007 3.18055e-015 5.56597e-015 -1.03368e-014 1.04647e-006 2.10002e-006 -5.70635e-007 2.75457e-007 2.39909e-007 -2.20316e-007 -52.6328 -50.9398 -122.028 1.80796 50.7413 -2.89652 -3.54033 14.7306 -6.53749 1.32968e-006 -2.36389e-006 1.86948e-006 52.6183 -50.9489 121.992 -1.84813 50.7491 2.90391 3.53935 14.7373 6.54457 -3.18055e-015 -3.18055e-015 1.59028e-015 
39.7391 -3.9236 6.71358 -0 -25.0011 -0 -0.0152145 -1.94809 -0.129786 -0.0348774 -3.89603 -0.260316 -0.0348775 -3.89602 -0.260316 10.2634 12.9645 10.6711 -1.18587e-006 5.40854 1.60808e-006 -12.6733 10.196 -0.150161 -66.4254 -9.79971 -42.0016 15.7599 30.5727 -21.1613 -55.5482 10.3583 5.51746 -6.36111e-015 -3.97569e-015 -3.18055e-015 5.56452e-007 -4.73451e-007 -4.40171e-007 1.27222e-014 2.38542e-015 1.35174e-014 -6.36111e-015 -3.97569e-015 -3.18055e-015 -0.0145882 -8.89369e-005 4.61098e-006 3.18055e-015 2.38542e-015 5.56597e-015 -6.36111e-015 -3.97569e-015 -3.18055e-015 -0.0187983 -0.00117418 5.58069e-005 -2.44852e-007 -9.91164e-007 5.86262e-007 -6.36111e-015 -3.97569e-015 -3.18055e-015 -0.0123059 -0.00326142 0.000681288 -3.18055e-015 -2.38542e-015 -0 -6.36111e-015 -3.97569e-015 -3.18055e-015 5.56452e-007 -4.73451e-007 -4.40171e-007 1.27222e-014 2.38542e-015 1.35174e-014 12.7661 10.0005 0.446639 66.0414 -10.0395 41.6482 -16.1665 30.378 21.6646 55.958 10.3843 -5.93718 6.36111e-015 7.15625e-015 2.38542e-015 -2.75508e-007 -2.39834e-007 2.20337e-007 6.36111e-015 -2.38542e-015 2.38542e-015 6.36111e-015 7.15625e-015 2.38542e-015 0.01498 -9.30451e-005 -4.8268e-006 -3.18055e-015 4.77083e-015 -0 6.36111e-015 7.15625e-015 2.38542e-015 0.0189744 -0.00119385 -5.84896e-005 3.18055e-015 -1.03368e-014 -2.38542e-015 6.36111e-015 7.15625e-015 2.38542e-015 0.0122799 -0.00324627 -0.000678666 3.18055e-015 -1.59028e-015 7.95139e-016 6.36111e-015 7.15625e-015 2.38542e-015 -2.75508e-007 -2.39834e-007 2.20337e-007 6.36111e-015 -2.38542e-015 2.38542e-015 -52.6328 -50.9398 -122.028 1.80794 50.7414 -2.89652 -3.54033 14.7305 -6.5375 -2.23074e-006 4.94404e-007 -4.23337e-006 52.6182 -50.9489 121.992 -1.84815 50.749 2.90395 3.53934 14.7373 6.54456 1.80214e-006 -3.73877e-006 4.72917e-006 
